# File created by Blade
# Date/Time:  Wed Jan 21 17:21:31 2015
# Frame Rate: 120.000 fps
#------------------------------------------------------
:FULLY-SPECIFIED
:DEGREES
340
root 19.807327 24.913143 -24.668642 -135.008753 17.219114 -193.733389
Spine 58.383436 14.915321 -11.695373
Head -15.834446 -13.516647 8.802785
LeftShoulder 28.279886 -49.265570 -2.712837
LeftArm 34.774258 24.972507 -55.172598
LeftForeArm -17.400434 -0.000000 11.124754
LeftHand -2.592823 -0.000000 10.555146
LeftHandThumb1 -26.253704 0.000000 33.147579
RightShoulder 20.759480 13.106010 -8.774238
RightArm 44.131379 27.001653 50.997645
RightForeArm -5.862854 -0.000000 12.832898
RightHand -9.110872 -0.000000 -8.487873
RightHandThumb1 -24.326973 -0.000000 -32.862282
LeftUpLeg -107.591050 -10.832350 -20.594946
LeftLeg 79.408073 -0.000000 -0.000000
LeftFoot -35.986161 29.686233 -9.313603
LeftToeBase 23.720037 -0.000000 -0.000000
RightUpLeg -8.058955 -3.263822 -9.239928
RightLeg 31.244453 -0.000000 -0.000000
RightFoot -30.447144 -23.167327 20.680635
RightToeBase -14.613954 -0.000000 0.000000
341
root 19.827901 24.724918 -24.561741 -135.516926 17.020949 -193.854827
Spine 58.186113 14.852530 -11.712977
Head -14.872275 -13.478547 9.088086
LeftShoulder 28.740854 -49.063705 -2.857329
LeftArm 34.233881 25.063560 -55.129168
LeftForeArm -17.535635 -0.000000 11.061312
LeftHand -2.448901 -0.000000 10.498234
LeftHandThumb1 -26.253704 0.000000 33.147579
RightShoulder 20.289222 12.279787 -8.647447
RightArm 44.801270 26.204023 50.668130
RightForeArm -5.680607 -0.000000 12.783870
RightHand -9.015117 0.000000 -8.336810
RightHandThumb1 -24.326973 -0.000000 -32.862282
LeftUpLeg -107.783289 -10.919991 -20.487515
LeftLeg 80.077847 -0.000000 -0.000000
LeftFoot -36.012608 29.841682 -9.363443
LeftToeBase 23.708642 -0.000000 -0.000000
RightUpLeg -7.860023 -2.775387 -9.104256
RightLeg 32.342763 -0.000000 -0.000000
RightFoot -32.089871 -22.899806 21.000456
RightToeBase -14.255373 -0.000000 0.000000
342
root 19.848513 24.540283 -24.461316 -136.068829 16.865593 -193.972904
Spine 58.059264 14.806751 -11.765667
Head -13.985487 -13.368220 9.315207
LeftShoulder 29.224171 -48.835468 -3.072164
LeftArm 33.780041 25.213532 -54.912439
LeftForeArm -17.634250 0.000000 10.999813
LeftHand -2.504231 -0.000000 10.012302
LeftHandThumb1 -26.253704 0.000000 33.147579
RightShoulder 19.962460 11.558008 -8.509320
RightArm 45.289873 25.526814 50.330982
RightForeArm -5.371028 0.000000 12.822971
RightHand -8.816453 -0.000000 -8.325197
RightHandThumb1 -24.326973 -0.000000 -32.862282
LeftUpLeg -107.926514 -10.909467 -20.502529
LeftLeg 80.754076 -0.000000 -0.000000
LeftFoot -36.116345 29.785231 -9.583322
LeftToeBase 23.651944 -0.000000 -0.000000
RightUpLeg -7.623093 -2.242872 -8.970088
RightLeg 33.420464 -0.000000 -0.000000
RightFoot -33.630978 -22.755128 21.340741
RightToeBase -14.056402 -0.000000 0.000000
343
root 19.874173 24.359700 -24.357482 -136.583214 16.657650 -194.000348
Spine 57.954319 14.759848 -11.676075
Head -13.211108 -13.316781 9.460594
LeftShoulder 29.822402 -48.677637 -3.418076
LeftArm 33.306327 25.505853 -54.613471
LeftForeArm -17.917898 -0.000000 10.924817
LeftHand -2.374573 -0.000000 9.741611
LeftHandThumb1 -26.253704 0.000000 33.147579
RightShoulder 19.693805 10.792600 -8.378542
RightArm 45.727800 24.926073 49.850748
RightForeArm -4.763116 -0.000000 12.893065
RightHand -8.630999 -0.000000 -8.388819
RightHandThumb1 -24.326973 -0.000000 -32.862282
LeftUpLeg -108.086069 -10.865607 -20.447054
LeftLeg 81.414836 -0.000000 -0.000000
LeftFoot -36.113618 29.755919 -9.612103
LeftToeBase 23.600591 -0.000000 -0.000000
RightUpLeg -7.412698 -1.748959 -8.741140
RightLeg 34.519579 -0.000000 -0.000000
RightFoot -35.087207 -22.580939 21.599505
RightToeBase -13.478931 -0.000000 0.000000
